<?xml version="1.0" encoding="UTF-8" standalone="no"?>
<!-- Created with Inkscape (http://www.inkscape.org/) -->

<svg
   width="16"
   height="16"
   viewBox="0 0 16 16"
   version="1.1"
   id="svg1"
   xml:space="preserve"
   sodipodi:docname="CameraRegionController2d.svg"
   inkscape:version="1.3 (0e150ed6c4, 2023-07-21)"
   xmlns:inkscape="http://www.inkscape.org/namespaces/inkscape"
   xmlns:sodipodi="http://sodipodi.sourceforge.net/DTD/sodipodi-0.dtd"
   xmlns="http://www.w3.org/2000/svg"
   xmlns:svg="http://www.w3.org/2000/svg"><sodipodi:namedview
     id="namedview1"
     pagecolor="#ffffff"
     bordercolor="#999999"
     borderopacity="1"
     inkscape:showpageshadow="2"
     inkscape:pageopacity="0"
     inkscape:pagecheckerboard="0"
     inkscape:deskcolor="#d1d1d1"
     inkscape:document-units="px"
     showgrid="true"
     inkscape:zoom="45.254834"
     inkscape:cx="6.098796"
     inkscape:cy="6.8169513"
     inkscape:window-width="1920"
     inkscape:window-height="1046"
     inkscape:window-x="-11"
     inkscape:window-y="-11"
     inkscape:window-maximized="1"
     inkscape:current-layer="g13"><inkscape:grid
       id="grid1"
       units="px"
       originx="0"
       originy="0"
       spacingx="1"
       spacingy="1"
       empcolor="#0099e5"
       empopacity="0.30196078"
       color="#0099e5"
       opacity="0.14901961"
       empspacing="5"
       dotted="false"
       gridanglex="30"
       gridanglez="30"
       visible="true" /></sodipodi:namedview><defs
     id="defs1"><inkscape:path-effect
       effect="fillet_chamfer"
       id="path-effect2"
       is_visible="true"
       lpeversion="1"
       nodesatellites_param="F,0,0,1,0,2,0,1 @ F,0,1,1,0,2,0,1 @ F,0,1,1,0,2,0,1 @ F,0,1,1,0,2,0,1"
       radius="0"
       unit="px"
       method="auto"
       mode="F"
       chamfer_steps="1"
       flexible="false"
       use_knot_distance="true"
       apply_no_radius="true"
       apply_with_radius="true"
       only_selected="false"
       hide_knots="false" /><inkscape:path-effect
       effect="fillet_chamfer"
       id="path-effect1"
       is_visible="true"
       lpeversion="1"
       nodesatellites_param="F,0,0,1,0,0,0,1 @ F,0,0,1,0,0,0,1 @ F,0,0,1,0,0,0,1 @ F,0,0,1,0,0,0,1"
       radius="0"
       unit="px"
       method="auto"
       mode="F"
       chamfer_steps="1"
       flexible="false"
       use_knot_distance="true"
       apply_no_radius="true"
       apply_with_radius="true"
       only_selected="false"
       hide_knots="false" /></defs><g
     inkscape:label="Layer 1"
     inkscape:groupmode="layer"
     id="layer1"><g
       id="g12"
       transform="translate(-5.482424,7.5165973)"><g
         id="g13"
         transform="rotate(180,13.482424,0.48340269)"><path
           d="M 4,3 A 2,2 0 0 0 3.5546875,3.0507813 2,2 0 0 0 3.1328125,3.1972656 2,2 0 0 0 2.7539063,3.4355469 2,2 0 0 0 2.4355469,3.7539063 2,2 0 0 0 2.1972656,4.1328125 2,2 0 0 0 2.0507813,4.5546875 2,2 0 0 0 2,5 V 7 H 4 V 5 h 8 v 5 h -2 v 2 h 2 a 2,2 0 0 0 0.445313,-0.05078 2,2 0 0 0 0.421875,-0.146485 2,2 0 0 0 0.378906,-0.238281 2,2 0 0 0 0.318359,-0.318359 2,2 0 0 0 0.238281,-0.378906 2,2 0 0 0 0.146485,-0.421875 A 2,2 0 0 0 14,10 V 5 a 2,2 0 0 0 0,-0.00586 2,2 0 0 0 0,-0.00586 2,2 0 0 0 0,-0.00781 2,2 0 0 0 0,-0.00586 2,2 0 0 0 0,-0.00586 2,2 0 0 0 0,-0.00586 2,2 0 0 0 0,-0.00586 2,2 0 0 0 0,-0.00781 2,2 0 0 0 0,-0.00586 2,2 0 0 0 0,-0.00586 2,2 0 0 0 -0.002,-0.00586 2,2 0 0 0 0,-0.00586 2,2 0 0 0 0,-0.00781 2,2 0 0 0 0,-0.00586 2,2 0 0 0 0,-0.00586 2,2 0 0 0 0,-0.00586 2,2 0 0 0 0,-0.00586 2,2 0 0 0 -0.002,-0.00781 2,2 0 0 0 0,-0.00586 2,2 0 0 0 0,-0.00586 2,2 0 0 0 0,-0.00586 2,2 0 0 0 0,-0.00586 2,2 0 0 0 -0.002,-0.00781 2,2 0 0 0 0,-0.00586 2,2 0 0 0 0,-0.00586 A 2,2 0 0 0 13.974609,4.6875 2,2 0 0 0 13.945313,4.5332031 2,2 0 0 0 13.902344,4.3828125 2,2 0 0 0 13.847656,4.234375 2,2 0 0 0 13.78125,4.0917969 2,2 0 0 0 13.705078,3.9550781 2,2 0 0 0 13.617188,3.8242188 2,2 0 0 0 13.521484,3.7011719 2,2 0 0 0 13.414063,3.5859375 2,2 0 0 0 13.298828,3.4785156 2,2 0 0 0 13.175781,3.3828125 2,2 0 0 0 13.044922,3.2949219 2,2 0 0 0 12.908203,3.21875 2,2 0 0 0 12.765625,3.1523438 2,2 0 0 0 12.617188,3.0976563 2,2 0 0 0 12.466797,3.0546875 2,2 0 0 0 12.3125,3.0253906 2,2 0 0 0 12.15625,3.0058594 2,2 0 0 0 12,3 Z"
           style="fill:#8da5f3;fill-opacity:1"
           id="path6"
           transform="translate(5.9707035,-8.5292913)" /><path
           d="M 9.9921875,-0.48827575 9.7089844,0.6406305 C 9.5910916,0.6781831 9.4761837,0.724538 9.3652344,0.77930237 L 8.3710938,0.18359925 7.6660156,0.8906305 8.2636719,1.8867242 c -0.018868,0.037231 -0.035939,0.075085 -0.052734,0.1132813 v 0.00195 c -0.010991,0.025483 -0.022141,0.050827 -0.033203,0.076172 -0.020188,0.049659 -0.039754,0.099516 -0.056641,0.1503906 l -1.1269532,0.28125 v 0.9882813 l 1.1269532,0.28125 c 0.016887,0.050875 0.036453,0.1007321 0.056641,0.1503906 0.011062,0.025345 0.022212,0.050689 0.033203,0.076172 v 0.00195 c 0.016795,0.038196 0.033866,0.07605 0.052734,0.1132813 L 7.6660156,5.117193 8.3710938,5.8242243 9.3652344,5.2285211 c 0.1109496,0.054765 0.225857,0.1011192 0.34375,0.1386719 L 9.9921875,6.4960993 H 10 10.998047 l 0.28125,-1.1269532 C 11.396592,5.3301238 11.510838,5.282467 11.621094,5.226568 L 12.617188,5.8242243 13.324219,5.117193 12.726563,4.1230524 c 0.01658,-0.038015 0.03221,-0.076439 0.04687,-0.1152344 0.03495,-0.073938 0.06623,-0.1495502 0.09375,-0.2265625 L 13.994141,3.4980524 V 2.5097711 l -1.126953,-0.28125 c -0.02746,-0.077674 -0.05875,-0.1539393 -0.09375,-0.2285156 -0.01467,-0.038795 -0.0303,-0.077219 -0.04687,-0.1152344 L 13.324219,0.8906305 12.617188,0.18359925 11.621094,0.7812555 C 11.510838,0.7253566 11.396592,0.67769964 11.279297,0.63867737 l -0.28125,-1.12695312 H 10 Z M 10.490234,2.0000055 c 0.06024,-1.21e-4 0.120373,0.00511 0.179688,0.015625 0.05855,0.01057 0.116064,0.026255 0.171875,0.046875 0.05617,0.020576 0.110417,0.046066 0.162109,0.076172 0.05178,0.030126 0.100799,0.064766 0.146485,0.1035156 0.0453,0.038581 0.08712,0.081062 0.125,0.1269531 0.03817,0.046384 0.07216,0.096058 0.101562,0.1484375 0.02943,0.05176 0.05427,0.1060057 0.07422,0.1621094 0.02007,0.056506 0.0351,0.1146753 0.04492,0.1738281 7.02e-4,0.00585 0.0014,0.011713 0.002,0.017578 6.91e-4,0.0052 0.0013,0.010412 0.002,0.015625 6.91e-4,0.0052 0.0013,0.010412 0.002,0.015625 6.91e-4,0.0052 0.0013,0.010412 0.002,0.015625 6.62e-4,0.0026 0.0013,0.00521 0.002,0.00781 1.6e-5,0.00326 1.6e-5,0.00651 0,0.00977 6.62e-4,0.0026 0.0013,0.00521 0.002,0.00781 3.9e-5,0.00521 3.9e-5,0.010417 0,0.015625 9e-6,0.0026 9e-6,0.00521 0,0.00781 9e-6,0.0026 9e-6,0.00521 0,0.00781 1.5e-5,0.00326 1.5e-5,0.00651 0,0.00977 6.61e-4,0.0026 0.0013,0.00521 0.002,0.00781 -6.41e-4,0.00261 -0.0013,0.00521 -0.002,0.00781 2e-6,0.0013 2e-6,0.0026 0,0.00391 2e-6,0.0013 2e-6,0.0026 0,0.00391 6.61e-4,0.0026 0.0013,0.00521 0.002,0.00781 -6.41e-4,0.00261 -0.0013,0.00521 -0.002,0.00781 1.5e-5,0.00326 1.5e-5,0.00651 0,0.00977 9e-6,0.0026 9e-6,0.00521 0,0.00781 9e-6,0.0026 9e-6,0.00521 0,0.00781 5e-5,0.00586 5e-5,0.011719 0,0.017578 -6.11e-4,0.00521 -0.0013,0.010422 -0.002,0.015625 -6.4e-4,0.00261 -0.0013,0.00521 -0.002,0.00781 -6.1e-4,0.00521 -0.0013,0.010422 -0.002,0.015625 -6.11e-4,0.00521 -0.0013,0.010422 -0.002,0.015625 -6e-4,0.00586 -0.0013,0.011725 -0.002,0.017578 -6.11e-4,0.00521 -0.0013,0.010422 -0.002,0.015625 -0.0098,0.059153 -0.02486,0.1173225 -0.04492,0.1738281 -0.01995,0.056104 -0.04478,0.1103489 -0.07422,0.1621094 -0.02941,0.05238 -0.06339,0.1020534 -0.101562,0.1484375 -0.03788,0.045891 -0.0797,0.088372 -0.125,0.1269531 -0.04569,0.03875 -0.09471,0.07339 -0.146485,0.1035156 -0.05169,0.030107 -0.105939,0.055596 -0.162109,0.076172 -0.05581,0.02062 -0.113323,0.036305 -0.171875,0.046875 -0.05931,0.010517 -0.119448,0.015746 -0.179688,0.015625 -0.05959,6e-6 -0.119061,-0.00522 -0.177734,-0.015625 C 10.253948,3.9816233 10.196436,3.965938 10.140625,3.945318 10.084455,3.9247421 10.030208,3.8992526 9.9785156,3.8691461 9.9267356,3.8390205 9.8777167,3.8043804 9.8320313,3.7656305 9.7867329,3.7270492 9.7449056,3.6845684 9.7070313,3.6386774 9.668862,3.5922933 9.6348748,3.5426198 9.6054688,3.4902399 9.5760336,3.4384794 9.5511985,3.3842343 9.53125,3.3281305 9.5112939,3.2722583 9.4962625,3.214747 9.4863281,3.1562555 v -0.00195 c -10e-6,-0.0026 -10e-6,-0.00521 0,-0.00781 -0.00602,-0.037512 -0.00993,-0.075332 -0.011719,-0.1132813 5.101e-4,-0.00977 0.00116,-0.019541 0.00195,-0.029297 -7.919e-4,-0.00976 -0.00144,-0.019522 -0.00195,-0.029297 0.00179,-0.037949 0.0057,-0.07577 0.011719,-0.1132813 -10e-6,-0.0026 -10e-6,-0.00521 0,-0.00781 v -0.00195 c 0.00993,-0.058491 0.024966,-0.1160029 0.044922,-0.171875 0.019948,-0.056104 0.044784,-0.110349 0.074219,-0.1621094 0.029406,-0.05238 0.063393,-0.1020535 0.1015625,-0.1484375 0.037874,-0.045891 0.079702,-0.088372 0.125,-0.1269531 0.045685,-0.03875 0.094704,-0.07339 0.1464843,-0.1035156 0.051692,-0.030106 0.1059391,-0.055596 0.1621091,-0.076172 0.05581,-0.02062 0.113323,-0.036305 0.171875,-0.046875 0.05867,-0.010403 0.118147,-0.015631 0.177734,-0.015625 z"
           style="fill:#8da5f3;stroke-width:0.499512"
           id="path12" /></g></g></g></svg>
