<?xml version="1.0" encoding="UTF-8" standalone="no"?>
<!-- Created with Inkscape (http://www.inkscape.org/) -->

<svg
   width="16"
   height="16"
   viewBox="0 0 16 16"
   version="1.1"
   id="svg1"
   xml:space="preserve"
   inkscape:version="1.3 (0e150ed6c4, 2023-07-21)"
   sodipodi:docname="CameraRegion2d.svg"
   xmlns:inkscape="http://www.inkscape.org/namespaces/inkscape"
   xmlns:sodipodi="http://sodipodi.sourceforge.net/DTD/sodipodi-0.dtd"
   xmlns="http://www.w3.org/2000/svg"
   xmlns:svg="http://www.w3.org/2000/svg"><sodipodi:namedview
     id="namedview1"
     pagecolor="#ffffff"
     bordercolor="#999999"
     borderopacity="1"
     inkscape:showpageshadow="2"
     inkscape:pageopacity="0"
     inkscape:pagecheckerboard="0"
     inkscape:deskcolor="#d1d1d1"
     inkscape:document-units="px"
     showgrid="true"
     inkscape:zoom="45.254834"
     inkscape:cx="9.3470678"
     inkscape:cy="7.9218056"
     inkscape:window-width="1920"
     inkscape:window-height="1046"
     inkscape:window-x="-11"
     inkscape:window-y="-11"
     inkscape:window-maximized="1"
     inkscape:current-layer="layer1"><inkscape:grid
       id="grid1"
       units="px"
       originx="0"
       originy="0"
       spacingx="1"
       spacingy="1"
       empcolor="#0099e5"
       empopacity="0.30196078"
       color="#0099e5"
       opacity="0.14901961"
       empspacing="5"
       dotted="false"
       gridanglex="30"
       gridanglez="30"
       visible="true" /></sodipodi:namedview><defs
     id="defs1"><inkscape:path-effect
       effect="fillet_chamfer"
       id="path-effect2"
       is_visible="true"
       lpeversion="1"
       nodesatellites_param="F,0,0,1,0,2,0,1 @ F,0,1,1,0,2,0,1 @ F,0,1,1,0,2,0,1 @ F,0,1,1,0,2,0,1"
       radius="0"
       unit="px"
       method="auto"
       mode="F"
       chamfer_steps="1"
       flexible="false"
       use_knot_distance="true"
       apply_no_radius="true"
       apply_with_radius="true"
       only_selected="false"
       hide_knots="false" /><inkscape:path-effect
       effect="fillet_chamfer"
       id="path-effect1"
       is_visible="true"
       lpeversion="1"
       nodesatellites_param="F,0,0,1,0,0,0,1 @ F,0,0,1,0,0,0,1 @ F,0,0,1,0,0,0,1 @ F,0,0,1,0,0,0,1"
       radius="0"
       unit="px"
       method="auto"
       mode="F"
       chamfer_steps="1"
       flexible="false"
       use_knot_distance="true"
       apply_no_radius="true"
       apply_with_radius="true"
       only_selected="false"
       hide_knots="false" /></defs><g
     inkscape:label="Layer 1"
     inkscape:groupmode="layer"
     id="layer1"><path
       fill="#8da5f3"
       d="M 5.6978421,8.0000052 A 1.3812948,1.363638 0 0 0 4.3165473,9.26228 1.3812948,1.363638 0 1 0 2.9352526,11.556373 v 0.989092 a 0.46043158,0.45454601 0 0 0 0.4604316,0.454546 H 6.1582736 A 0.46043158,0.45454601 0 0 0 6.6187052,12.545465 V 12.090919 L 8,13.000011 V 10.272735 L 6.6187052,11.181827 V 10.377281 A 1.3812948,1.363638 0 0 0 5.6978421,8.0000052 Z"
       id="path1"
       style="stroke-width:0.457479" /><path
       d="M 4,3 A 2,2 0 0 0 3.5546875,3.0507813 2,2 0 0 0 3.1328125,3.1972656 2,2 0 0 0 2.7539063,3.4355469 2,2 0 0 0 2.4355469,3.7539063 2,2 0 0 0 2.1972656,4.1328125 2,2 0 0 0 2.0507813,4.5546875 2,2 0 0 0 2,5 V 7 H 4 V 5 h 8 v 5 h -2 v 2 h 2 a 2,2 0 0 0 0.445313,-0.05078 2,2 0 0 0 0.421875,-0.146485 2,2 0 0 0 0.378906,-0.238281 2,2 0 0 0 0.318359,-0.318359 2,2 0 0 0 0.238281,-0.378906 2,2 0 0 0 0.146485,-0.421875 A 2,2 0 0 0 14,10 V 5 a 2,2 0 0 0 0,-0.00586 2,2 0 0 0 0,-0.00586 2,2 0 0 0 0,-0.00781 2,2 0 0 0 0,-0.00586 2,2 0 0 0 0,-0.00586 2,2 0 0 0 0,-0.00586 2,2 0 0 0 0,-0.00586 2,2 0 0 0 0,-0.00781 2,2 0 0 0 0,-0.00586 2,2 0 0 0 0,-0.00586 2,2 0 0 0 -0.002,-0.00586 2,2 0 0 0 0,-0.00586 2,2 0 0 0 0,-0.00781 2,2 0 0 0 0,-0.00586 2,2 0 0 0 0,-0.00586 2,2 0 0 0 0,-0.00586 2,2 0 0 0 0,-0.00586 2,2 0 0 0 -0.002,-0.00781 2,2 0 0 0 0,-0.00586 2,2 0 0 0 0,-0.00586 2,2 0 0 0 0,-0.00586 2,2 0 0 0 0,-0.00586 2,2 0 0 0 -0.002,-0.00781 2,2 0 0 0 0,-0.00586 2,2 0 0 0 0,-0.00586 A 2,2 0 0 0 13.974609,4.6875 2,2 0 0 0 13.945313,4.5332031 2,2 0 0 0 13.902344,4.3828125 2,2 0 0 0 13.847656,4.234375 2,2 0 0 0 13.78125,4.0917969 2,2 0 0 0 13.705078,3.9550781 2,2 0 0 0 13.617188,3.8242188 2,2 0 0 0 13.521484,3.7011719 2,2 0 0 0 13.414063,3.5859375 2,2 0 0 0 13.298828,3.4785156 2,2 0 0 0 13.175781,3.3828125 2,2 0 0 0 13.044922,3.2949219 2,2 0 0 0 12.908203,3.21875 2,2 0 0 0 12.765625,3.1523438 2,2 0 0 0 12.617188,3.0976563 2,2 0 0 0 12.466797,3.0546875 2,2 0 0 0 12.3125,3.0253906 2,2 0 0 0 12.15625,3.0058594 2,2 0 0 0 12,3 Z"
       style="fill:#8da5f3;fill-opacity:1"
       id="path6" /></g></svg>
